<?xml version="1.0" standalone="no"?>
<!DOCTYPE svg PUBLIC "-//W3C//DTD SVG 20010904//EN"
 "http://www.w3.org/TR/2001/REC-SVG-20010904/DTD/svg10.dtd">
<svg version="1.0" xmlns="http://www.w3.org/2000/svg"
 width="512.000000pt" height="512.000000pt" viewBox="0 0 512.000000 512.000000"
 preserveAspectRatio="xMidYMid meet">
<metadata>
Created by potrace 1.14, written by Peter Selinger 2001-2017
</metadata>
<g transform="translate(0.000000,512.000000) scale(0.100000,-0.100000)"
fill="#000000" stroke="none">
<path d="M1115 5100 c-16 -11 -25 -20 -19 -20 5 0 16 6 24 13 12 10 12 9 2 -4
-6 -9 -9 -19 -6 -22 4 -4 -3 -4 -16 -2 -18 4 -20 2 -9 -11 7 -8 8 -14 3 -13
-16 4 -44 -13 -38 -22 5 -8 -10 -13 -29 -10 -4 1 -2 -9 4 -21 11 -21 11 -22
-4 -9 -12 9 -17 10 -17 2 0 -7 -5 -9 -12 -5 -7 4 -8 3 -4 -5 4 -6 13 -8 19 -4
7 4 6 0 -2 -10 -7 -9 -17 -15 -21 -12 -4 3 -11 -2 -14 -11 -3 -8 -2 -12 4 -9
6 3 10 4 10 1 0 -3 -15 -13 -32 -21 -26 -12 -28 -14 -8 -10 14 3 19 2 12 -1
-6 -3 -10 -10 -7 -15 4 -5 -2 -6 -11 -2 -12 4 -15 3 -10 -6 4 -6 4 -11 -1 -10
-19 3 -33 -2 -33 -12 0 -5 6 -7 13 -4 6 4 1 -3 -13 -14 -14 -11 -21 -21 -16
-21 5 0 2 -8 -7 -18 -10 -10 -14 -22 -10 -27 5 -4 2 -5 -5 0 -10 5 -11 10 -3
18 6 6 11 15 11 20 0 4 -11 -4 -24 -20 -15 -17 -23 -38 -22 -55 2 -19 -1 -25
-8 -18 -5 5 -14 10 -20 10 -5 0 -6 -3 -3 -7 4 -3 -1 -12 -11 -20 -9 -8 -11
-11 -3 -7 9 4 12 3 7 -4 -3 -5 0 -13 6 -16 7 -3 0 -3 -17 0 -20 4 -26 2 -17
-4 10 -7 10 -11 -2 -21 -8 -7 -21 -9 -27 -5 -7 4 -9 3 -5 -4 3 -6 2 -22 -4
-37 -7 -20 -15 -25 -28 -21 -14 5 -13 3 3 -10 20 -16 20 -16 -3 -11 -19 4 -21
3 -11 -9 11 -13 6 -18 -15 -15 -5 1 -6 -6 -2 -15 6 -15 4 -15 -10 -3 -16 13
-16 12 -6 -8 9 -15 9 -24 1 -28 -6 -4 -20 -21 -31 -39 -11 -17 -17 -22 -13
-11 16 45 14 48 -5 10 -11 -22 -18 -45 -16 -51 3 -7 -4 -10 -17 -7 -18 4 -19
3 -7 -6 12 -8 12 -11 1 -11 -8 0 -11 -6 -7 -16 5 -14 4 -15 -9 -4 -13 11 -14
10 -9 -5 5 -12 4 -16 -4 -11 -6 3 -13 2 -16 -3 -4 -5 -1 -13 5 -17 8 -4 9 -3
5 4 -5 8 -2 10 9 6 14 -6 14 -8 -2 -20 -10 -7 -14 -14 -9 -14 5 0 3 -7 -4 -15
-7 -8 -16 -12 -21 -9 -5 3 -10 -2 -10 -10 -3 -30 -4 -34 -13 -43 -5 -5 -6 -3
-2 5 4 6 2 12 -5 12 -7 0 -9 -8 -6 -21 5 -17 3 -18 -10 -7 -15 12 -15 11 -4
-11 8 -15 9 -21 2 -17 -6 4 -11 2 -11 -4 0 -6 -5 -8 -12 -4 -8 5 -7 0 2 -11 8
-10 10 -16 4 -12 -13 7 -28 -19 -19 -33 3 -4 -2 -10 -9 -13 -8 -3 -20 -16 -26
-28 -8 -15 -9 -19 -1 -15 6 4 11 2 11 -3 0 -6 -10 -11 -22 -12 -13 0 -17 -3
-10 -6 6 -2 12 -12 11 -21 0 -11 -2 -12 -6 -4 -2 6 -9 10 -14 6 -5 -3 -5 -13
1 -25 8 -15 8 -19 -2 -17 -8 2 -14 -9 -16 -25 -3 -27 -4 -27 -17 -11 -12 17
-13 16 -8 -7 3 -16 -1 -32 -10 -41 -12 -11 -13 -18 -5 -26 9 -9 6 -10 -10 -7
-16 3 -19 0 -15 -12 5 -12 3 -14 -8 -8 -12 8 -12 6 0 -8 8 -10 11 -20 7 -24
-3 -3 -6 -1 -6 6 0 7 -5 9 -10 6 -6 -4 -8 -11 -5 -16 4 -5 1 -9 -6 -9 -7 0 -4
-7 7 -15 16 -13 16 -14 1 -9 -19 7 -23 -6 -6 -23 8 -8 7 -13 -2 -18 -8 -5 -10
-4 -5 3 4 7 1 12 -8 12 -10 0 -13 -6 -9 -17 4 -10 2 -14 -4 -10 -7 5 -9 -1 -6
-15 3 -17 2 -19 -5 -10 -14 20 -22 -20 -9 -43 7 -13 6 -16 -2 -11 -6 4 -11 2
-11 -4 0 -6 -5 -8 -12 -4 -6 4 -8 3 -4 -4 3 -6 2 -13 -3 -16 -5 -3 -8 -19 -7
-35 1 -17 -2 -28 -6 -25 -4 3 -8 0 -8 -6 0 -6 -5 -8 -12 -4 -10 6 -10 5 -1 -7
13 -16 12 -47 -3 -57 -5 -4 -16 -16 -24 -27 l-15 -20 24 20 24 20 -17 -27
c-10 -15 -18 -31 -18 -35 0 -4 -2 -10 -5 -13 -4 -3 -2 2 2 10 8 13 6 13 -8 1
-13 -10 -14 -17 -6 -33 9 -16 8 -19 -2 -13 -9 6 -11 4 -6 -8 3 -8 0 -18 -8
-21 -8 -3 -12 -16 -11 -31 3 -18 -1 -25 -10 -21 -8 3 -11 0 -8 -8 3 -8 1 -17
-5 -20 -6 -4 -8 -13 -4 -21 3 -9 -1 -15 -8 -15 -12 0 -12 -2 0 -9 9 -6 10 -11
2 -15 -6 -4 -11 -13 -11 -19 0 -7 4 -6 10 3 7 12 9 10 7 -8 -1 -13 -6 -21 -14
-18 -10 4 -12 -313 -13 -1564 l0 -1570 2560 0 2560 0 0 1335 c0 915 -4 1335
-11 1335 -6 0 -7 -5 -3 -12 4 -7 3 -8 -4 -4 -9 5 -9 13 -2 27 8 13 7 19 0 19
-7 0 -8 6 -1 19 9 17 8 18 -12 13 l-22 -5 20 24 c12 14 14 19 4 11 -14 -10
-18 -10 -23 3 -4 11 -2 14 7 10 6 -4 4 0 -6 8 -12 10 -14 17 -7 22 15 9 1 28
-16 21 -8 -3 -13 -2 -13 2 1 4 0 10 -1 15 -6 19 -5 33 5 39 6 5 2 8 -9 8 -15
0 -16 3 -6 15 11 13 10 14 -6 9 -15 -5 -16 -4 -8 5 13 14 7 54 -7 46 -4 -3
-13 5 -20 17 -12 22 -11 22 6 8 11 -8 6 3 -10 24 -17 22 -24 37 -17 32 7 -4
12 -2 12 8 0 8 -5 18 -12 22 -6 4 -8 3 -5 -3 3 -5 0 -10 -8 -10 -11 0 -12 5
-3 20 7 14 7 17 -1 13 -7 -5 -11 2 -11 18 0 14 -6 26 -12 26 -9 0 -8 4 2 10
10 6 11 10 3 10 -7 0 -15 11 -19 25 -3 14 -10 25 -16 25 -5 0 -6 -5 -2 -12 4
-7 3 -8 -5 -4 -9 6 -9 11 -1 21 13 16 4 55 -13 55 -8 0 -8 -3 1 -12 7 -7 12
-16 12 -22 0 -5 -6 -1 -14 9 -10 13 -11 25 -5 37 13 25 11 32 -6 18 -8 -7 -15
-11 -16 -9 -5 24 -4 51 3 55 4 3 8 11 8 17 0 7 -4 6 -10 -3 -7 -11 -10 -11
-10 -2 0 8 -5 10 -13 6 -9 -5 -9 -4 0 6 9 10 8 16 -6 29 -9 9 -10 12 -2 6 12
-9 12 -7 2 13 -7 13 -17 20 -24 15 -8 -4 -8 -2 1 9 10 13 10 18 1 24 -8 5 -9
3 -4 -6 5 -9 4 -11 -4 -6 -6 4 -8 12 -5 18 10 15 14 58 6 57 -4 -1 -16 -1 -27
0 -17 1 -18 3 -5 11 9 6 11 10 3 10 -7 0 -10 7 -6 17 4 10 2 14 -4 10 -6 -4
-14 0 -17 9 -3 8 -2 12 4 9 6 -3 10 1 10 9 0 9 -6 13 -13 10 -8 -3 -14 2 -14
10 0 8 4 13 9 10 4 -3 8 0 8 5 0 6 -5 11 -11 11 -5 0 -7 6 -3 13 5 7 0 6 -11
-3 -11 -9 -16 -10 -11 -2 4 6 3 12 -2 12 -4 0 -7 18 -6 40 1 22 -2 38 -8 37
-6 -1 -13 4 -16 12 -3 9 0 11 9 7 8 -4 6 -1 -4 7 -9 8 -17 24 -17 36 0 11 -5
21 -11 21 -5 0 -7 5 -4 10 3 6 -2 10 -12 10 -15 0 -16 2 -3 10 14 9 7 14 -13
11 -5 -1 -6 3 -2 9 3 6 11 8 16 5 5 -4 9 -2 9 3 0 6 -7 13 -16 16 -9 3 -14 12
-11 19 3 8 -4 19 -15 26 -16 10 -17 15 -8 27 10 11 10 14 1 14 -7 0 -10 4 -6
9 3 5 0 13 -6 17 -7 4 -9 3 -5 -4 3 -6 3 -13 -2 -16 -4 -2 -8 6 -8 19 0 13 4
21 8 19 4 -3 8 0 8 5 0 6 -5 11 -11 11 -5 0 -7 4 -4 10 4 6 -1 7 -11 3 -14 -5
-15 -3 -4 17 11 20 10 22 -4 17 -8 -3 -18 -1 -22 5 -4 7 -3 8 4 4 7 -4 12 -1
12 9 0 10 5 13 12 9 6 -4 8 -3 4 4 -3 6 -15 9 -26 7 -11 -2 -20 0 -20 6 0 5 8
9 18 10 10 0 12 3 5 6 -7 2 -13 11 -13 19 0 8 -4 14 -9 14 -5 0 -8 15 -7 33 2
30 0 34 -21 31 -20 -2 -22 0 -12 12 6 8 8 14 4 14 -4 0 -1 8 6 17 8 9 9 14 3
10 -7 -4 -14 2 -17 14 -4 13 -10 18 -18 13 -8 -4 -10 -3 -5 4 4 7 14 12 23 12
21 0 11 11 -14 14 -22 3 -24 28 -3 38 11 5 10 7 -6 7 -17 1 -22 7 -20 25 1 20
4 22 16 13 9 -7 8 -4 -2 9 -10 11 -18 26 -18 33 0 7 -6 11 -13 8 -9 -3 -12 6
-11 37 2 51 -3 61 -24 44 -12 -9 -11 -6 2 10 17 20 15 27 -6 23 -4 0 -5 6 -2
14 4 8 10 12 15 9 5 -3 6 2 3 10 -3 9 -11 13 -18 9 -6 -4 -5 0 2 9 11 14 10
18 -5 26 -9 6 -18 23 -19 39 -3 51 -4 54 -16 47 -7 -4 -8 -3 -4 5 4 6 11 9 16
6 4 -3 6 4 3 15 -3 11 -10 17 -15 13 -6 -3 -8 0 -6 8 3 8 11 13 17 11 7 -1 10
2 6 8 -3 6 -11 8 -16 5 -5 -4 -9 1 -9 10 0 10 5 13 12 9 7 -4 8 -3 4 5 -4 6
-12 9 -17 6 -5 -4 -9 -1 -9 5 0 6 -5 8 -12 4 -7 -4 -8 -3 -4 5 4 6 12 9 17 6
5 -4 9 -1 9 4 0 6 -4 11 -10 11 -5 0 -10 5 -10 10 0 6 3 9 8 8 4 -2 7 2 7 7 0
6 -3 9 -7 7 -12 -3 -10 16 2 23 6 3 10 11 10 17 0 6 -7 5 -17 -3 -11 -10 -14
-10 -9 -1 4 7 2 12 -4 12 -6 0 -8 5 -3 13 11 18 13 38 2 31 -5 -3 -9 -1 -9 5
0 5 6 12 13 14 9 4 9 6 0 6 -7 1 -13 6 -13 12 0 5 5 7 10 4 6 -3 10 -1 10 4 0
6 -4 11 -10 11 -5 0 -10 5 -10 11 0 5 5 7 12 3 7 -4 8 -3 4 4 -5 9 -405 12
-1574 12 -1546 0 -1567 0 -1597 -20z m-268 -345 c0 -8 -4 -12 -9 -9 -5 3 -6
10 -3 15 9 13 12 11 12 -6z m3932 -1258 c0 -9 -2 -8 -6 1 -2 6 -10 9 -15 6 -7
-4 -8 -2 -4 5 9 13 26 5 25 -12z m-4678 -134 c13 -16 12 -17 -3 -4 -10 7 -18
15 -18 17 0 8 8 3 21 -13z"/>
<path d="M4340 4759 c0 -5 5 -7 10 -4 6 3 10 8 10 11 0 2 -4 4 -10 4 -5 0 -10
-5 -10 -11z"/>
<path d="M4396 4518 c3 -5 10 -6 15 -3 13 9 11 12 -6 12 -8 0 -12 -4 -9 -9z"/>
<path d="M633 4485 c0 -8 4 -12 9 -9 5 3 6 10 3 15 -9 13 -12 11 -12 -6z"/>
<path d="M500 4274 c0 -8 5 -12 10 -9 6 4 8 11 5 16 -9 14 -15 11 -15 -7z"/>
<path d="M4473 4275 c0 -8 4 -12 9 -9 4 3 8 9 8 15 0 5 -4 9 -8 9 -5 0 -9 -7
-9 -15z"/>
<path d="M4584 3962 c4 -3 14 -7 22 -8 9 -1 13 0 10 4 -4 3 -14 7 -22 8 -9 1
-13 0 -10 -4z"/>
</g>
</svg>
